# xmcd CD database file
#
# Track frame offsets:
#	150
#	11715
#	27510
#	41243
#	50885
#	63500
#	76610
#	91675
#	104018
#	115120
#	127880
#	138903
#	152198
#	163963
#	176155
#	189340
#
# Disc length: 2700 seconds
#
# Revision: 0
# Processed by: cddbd v1.5PL3 Copyright (c) Steve Scherf et al.
# Submitted via: CDex 1.51
#
DISCID=d90a8a10
DTITLE=Sonny Boy Williamson - Chess Master
DYEAR=1990
DGENRE=Blues
TTITLE0=I don't know
TTITLE1=Cross my heart
TTITLE2=Let me explain
TTITLE3=one way out
TTITLE4=trust my baby 
TTITLE5=Dissatisfied
TTITLE6=Key to your door
TTITLE7=don't start me talking i'll tell everything I know
TTITLE8=Fattening frogs for snakes
TTITLE9=What
TTITLE10=Down Child
TTITLE11=Too Young to die
TTITLE12=Got to move
TTITLE13=Bring it on home
TTITLE14=All my love in vain
TTITLE15=It's sad to be alone
EXTD=YEAR: 1990
EXTT0=
EXTT1=
EXTT2=
EXTT3=
EXTT4=
EXTT5=
EXTT6=
EXTT7=
EXTT8=
EXTT9=
EXTT10=
EXTT11=
EXTT12=
EXTT13=
EXTT14=
EXTT15=
PLAYORDER=
